<svg width="151" height="28" viewBox="0 0 151 28" fill="none" xmlns="http://www.w3.org/2000/svg">
<g clip-path="url(#clip0_5715_142793)">
<path d="M43.4106 6.00576L43.4275 5.75576H43.6597V3.21178V3.04078L43.5003 2.97878C43.0192 2.79161 42.443 2.72095 41.8497 2.72095C39.6348 2.72095 37.8709 3.68178 36.8769 5.37359V3.24592V2.99592H36.6269H33.7783H33.5283V3.24592V20.6422V20.8922H33.7783H36.6269H36.8769V20.6422V11.7379C36.8769 9.72754 37.3523 8.2753 38.1999 7.32751C39.0432 6.38442 40.2896 5.90242 41.918 5.90242C42.3418 5.90242 42.7419 5.92666 43.1597 5.97588V6.00576H43.4097H43.4106Z" fill="white" stroke="white" stroke-width="0.5"/>
<path d="M61.5563 20.8931H61.8063V20.6431V3.4968V3.2468V3.2459H61.5563V2.9968H58.7077H58.4577V3.2468V5.4735C57.227 3.63849 54.9405 2.51514 52.3652 2.51514C47.4877 2.51514 43.9414 6.46933 43.9414 11.9445C43.9414 17.4197 47.4877 21.3748 52.3652 21.3748C54.9405 21.3748 57.227 20.2514 58.4577 18.4164V20.6431V20.8931H58.7077H61.5563ZM57.0268 7.4326L57.0268 7.43262L57.0294 7.43557C58.066 8.5845 58.5934 10.1025 58.5934 11.9436C58.5934 13.7847 58.066 15.3027 57.0294 16.4516L57.0294 16.4516L57.0268 16.4546C56.0269 17.5989 54.6736 18.1915 53.0095 18.1915C51.347 18.1915 49.992 17.5998 48.9568 16.4531C47.9528 15.3033 47.4257 13.7841 47.4257 11.9436C47.4257 10.1031 47.9528 8.5839 48.9568 7.4341C49.992 6.28741 51.347 5.69571 53.0095 5.69571C54.6736 5.69571 56.0269 6.28832 57.0268 7.4326Z" fill="white" stroke="white" stroke-width="0.5"/>
<path d="M80.3861 3.24585V2.99585H80.1361H80.1343H77.2856H77.0356V3.24585V13.1127C77.0356 14.4882 76.5044 15.6317 75.6096 16.4336C74.7125 17.2374 73.4353 17.7107 71.9272 17.7107C70.6315 17.7107 69.7316 17.363 69.1468 16.6655C68.5537 15.9581 68.2431 14.8429 68.2431 13.216V3.24585V2.99585H67.9931H65.1444H64.8944V3.24585V13.9034C64.8944 16.1277 65.4735 17.8806 66.5758 19.0794C67.6808 20.2812 69.2806 20.8922 71.2496 20.8922C73.7554 20.8922 75.8505 19.9333 77.0365 18.1701V18.9573C77.0365 21.0353 76.5365 22.5565 75.6382 23.5562C74.7439 24.5516 73.4207 25.0677 71.6909 25.0677C69.7117 25.0677 67.8067 24.3654 66.4671 23.1392L66.2706 22.9594L66.1036 23.1668L64.442 25.2301L64.3037 25.4019L64.4569 25.5605C66.1101 27.2724 68.828 28.25 71.7592 28.25C74.455 28.25 76.6224 27.4432 78.114 25.8551C79.6034 24.2694 80.3861 21.9396 80.3861 18.9582V3.24585Z" fill="white" stroke="white" stroke-width="0.5"/>
<path d="M98.6807 20.893H98.9307V20.643V20.6421V9.50289C98.9307 7.3137 98.369 5.56133 97.276 4.35396C96.1795 3.14288 94.5793 2.51416 92.5755 2.51416C90.0808 2.51416 88.0167 3.46541 86.8569 5.2157V3.24582V2.99582H86.6069H83.7583H83.5083V3.24582V20.643V20.893H83.7583H86.6069H86.8569V20.643V10.2946C86.8569 8.90005 87.3812 7.75684 88.2629 6.96018C89.1468 6.16144 90.4066 5.69653 91.898 5.69653C93.2111 5.69653 94.1101 6.0447 94.6903 6.74116C95.2792 7.44812 95.5821 8.56297 95.5821 10.1912V20.643V20.893H95.8321H98.6807Z" fill="white" stroke="white" stroke-width="0.5"/>
<path d="M119.097 20.8931H119.347V20.6431V3.4968V3.2468V3.2459H119.097V2.9968H116.249H115.999V3.2468V5.4735C114.768 3.63849 112.482 2.51514 109.906 2.51514C105.029 2.51514 101.482 6.46933 101.482 11.9445C101.482 17.4197 105.029 21.3748 109.906 21.3748C112.482 21.3748 114.768 20.2514 115.999 18.4164V20.6431V20.8931H116.249H119.097ZM114.568 7.4326L114.568 7.43262L114.57 7.43557C115.607 8.5845 116.134 10.1025 116.134 11.9436C116.134 13.7847 115.607 15.3027 114.57 16.4516L114.57 16.4516L114.568 16.4546C113.568 17.5989 112.215 18.1915 110.551 18.1915C108.888 18.1915 107.533 17.5998 106.498 16.4531C105.494 15.3033 104.967 13.7841 104.967 11.9436C104.967 10.1031 105.494 8.5839 106.498 7.4341C107.533 6.28741 108.888 5.69571 110.551 5.69571C112.215 5.69571 113.568 6.28832 114.568 7.4326Z" fill="white" stroke="white" stroke-width="0.5"/>
<path d="M132.279 3.24585V2.99585H132.029H129.181H129.179H128.929V3.24585V14.1452C128.929 16.2698 129.69 18.0825 131.037 19.3632C132.383 20.6431 134.297 21.3747 136.573 21.3747C138.848 21.3747 140.762 20.6431 142.108 19.3632C143.455 18.0825 144.216 16.2698 144.216 14.1452V3.24585V2.99585H143.966H141.118H140.868V3.24585V13.9726C140.868 15.3691 140.467 16.4144 139.752 17.1116C139.036 17.8097 137.971 18.1924 136.573 18.1924C135.176 18.1924 134.111 17.8097 133.395 17.1116C132.68 16.4144 132.279 15.3691 132.279 13.9726V3.24585Z" fill="white" stroke="white" stroke-width="0.5"/>
<path d="M147.784 2.99585H147.534V3.24585V20.6431V20.8931H147.784H150.632H150.882V20.6431V3.24585V2.99585H150.632H147.784Z" fill="white" stroke="white" stroke-width="0.5"/>
<path d="M21.0339 14.9997L19.5072 13.473C19.4685 13.4343 19.482 13.3696 19.5314 13.3481C20.0706 13.1153 20.5747 12.8152 21.0339 12.4602C21.1984 12.3326 21.3565 12.1987 21.5084 12.0576C21.9514 11.6461 22.3405 11.1779 22.664 10.6639C22.6649 10.6621 22.6658 10.6612 22.6667 10.6594C22.8626 10.3476 23.0351 10.0187 23.1807 9.67631C23.5321 8.84958 23.728 7.94108 23.7316 6.98675C23.7316 6.98675 23.7316 6.98585 23.7316 6.98495C23.7316 6.97596 23.7316 6.96698 23.7316 6.95799C23.7316 6.00456 23.5402 5.09695 23.1933 4.26933C23.0774 3.99166 22.9435 3.72297 22.7934 3.46507C22.7934 3.46327 22.7916 3.46237 22.7916 3.46147C22.1168 2.30226 21.1166 1.35691 19.9169 0.748548C19.9124 0.745852 19.9071 0.743156 19.9026 0.741359C18.9743 0.27318 17.4053 0.00718893 16.2964 0C16.2811 0 16.7889 0 16.7736 0C16.7583 0 16.7439 0 16.7286 0H2.07311C0.928271 0 0 0.928271 0 2.07311V16.8554C0 17.3343 0.0485253 17.8025 0.141083 18.2545C0.141083 18.2554 0.141083 18.2563 0.141083 18.2581C0.313617 19.101 0.638917 19.8891 1.08643 20.5909C1.08643 20.5927 1.08822 20.5936 1.08912 20.5954C1.83857 21.7699 2.93129 22.7045 4.2253 23.2571C4.22979 23.2589 4.23428 23.2607 4.23878 23.2625C4.24866 23.267 4.25944 23.2715 4.26933 23.276C4.9352 23.5554 5.6532 23.7334 6.40534 23.7927C6.58776 23.8071 6.77108 23.8142 6.95709 23.8142C7.91681 23.8142 8.83071 23.6201 9.66193 23.2688C10.2487 23.0208 10.7951 22.6946 11.2875 22.3028C11.2884 22.3028 11.2893 22.3019 11.2902 22.301C11.2992 22.2938 11.3091 22.2866 11.3181 22.2785C11.3208 22.2767 11.3235 22.274 11.3262 22.2722C11.9633 21.7573 12.5078 21.1328 12.9302 20.4265C13.5287 19.4263 13.8836 18.2644 13.9124 17.0216V17.0189C13.9133 16.965 13.9142 16.9111 13.9142 16.8572C13.9142 16.8032 13.9142 16.7493 13.9124 16.6954V14.2107C13.9124 14.1038 14.0418 14.0499 14.1173 14.1254L20.4184 20.4265L21.893 21.9011C22.5733 22.5813 23.7352 22.0997 23.7352 21.1382V18.4756C23.7352 17.9831 23.5393 17.5104 23.1906 17.1618L21.0303 15.0015L21.0339 14.9997ZM16.7709 9.67631H10.1337C9.874 9.67631 9.66283 9.88658 9.66283 10.1472V16.9138V16.9147C9.57746 18.8125 7.6679 20.0418 5.9147 19.3077C4.96755 18.9114 4.32684 17.9975 4.26933 16.9632V4.68449C4.26933 4.45804 4.45354 4.27382 4.68 4.27382L10.3539 4.27023C10.3539 4.27023 10.3539 4.27202 10.353 4.27292C11.5436 4.27292 12.7729 4.27292 13.9142 4.27292C14.9799 4.27292 15.9693 4.27292 16.7781 4.27472C18.2419 4.27652 19.4497 5.49504 19.4551 6.9544C19.4604 8.45059 18.2734 9.65564 16.7709 9.6772V9.67631Z" fill="#E8562E"/>
</g>
<defs>
<clipPath id="clip0_5715_142793">
<rect width="150.633" height="28" fill="white"/>
</clipPath>
</defs>
</svg>
